<mxfile host="app.diagrams.net" modified="2023-09-29T14:56:20.062Z" agent="Mozilla/5.0 (Macintosh; Intel Mac OS X 10_15_7) AppleWebKit/537.36 (KHTML, like Gecko) Chrome/117.0.0.0 Safari/537.36" etag="FPr-zeu7UklSBmbYUd9H" version="22.0.0" type="device">
  <diagram name="PÃ¡gina-1" id="FhEYSqoAmyUW1KmyxTYc">
    <mxGraphModel dx="1434" dy="752" grid="1" gridSize="10" guides="1" tooltips="1" connect="1" arrows="1" fold="1" page="1" pageScale="1" pageWidth="827" pageHeight="1169" math="0" shadow="0">
      <root>
        <mxCell id="0" />
        <mxCell id="1" parent="0" />
        <mxCell id="8k8SDluN_3D2_-qeHtZn-13" value="Auto" style="rounded=0;whiteSpace=wrap;html=1;" vertex="1" parent="1">
          <mxGeometry x="640" y="145" width="120" height="60" as="geometry" />
        </mxCell>
        <mxCell id="8k8SDluN_3D2_-qeHtZn-14" value="Service&lt;br&gt;" style="rounded=0;whiteSpace=wrap;html=1;" vertex="1" parent="1">
          <mxGeometry x="1210" y="156" width="120" height="60" as="geometry" />
        </mxCell>
        <mxCell id="8k8SDluN_3D2_-qeHtZn-15" value="Cliente" style="rounded=0;whiteSpace=wrap;html=1;" vertex="1" parent="1">
          <mxGeometry x="60" y="160" width="120" height="60" as="geometry" />
        </mxCell>
        <mxCell id="8k8SDluN_3D2_-qeHtZn-16" value="Descripcion" style="ellipse;whiteSpace=wrap;html=1;" vertex="1" parent="1">
          <mxGeometry x="1210" y="256" width="80" height="50" as="geometry" />
        </mxCell>
        <mxCell id="8k8SDluN_3D2_-qeHtZn-17" value="&lt;u&gt;Id&lt;/u&gt;" style="ellipse;whiteSpace=wrap;html=1;" vertex="1" parent="1">
          <mxGeometry x="1110" y="256" width="80" height="50" as="geometry" />
        </mxCell>
        <mxCell id="8k8SDluN_3D2_-qeHtZn-18" value="Kilometros" style="ellipse;whiteSpace=wrap;html=1;" vertex="1" parent="1">
          <mxGeometry x="1310" y="256" width="80" height="50" as="geometry" />
        </mxCell>
        <mxCell id="8k8SDluN_3D2_-qeHtZn-19" value="Fecha" style="ellipse;whiteSpace=wrap;html=1;" vertex="1" parent="1">
          <mxGeometry x="1400" y="256" width="80" height="50" as="geometry" />
        </mxCell>
        <mxCell id="8k8SDluN_3D2_-qeHtZn-20" value="" style="endArrow=none;html=1;rounded=0;entryX=0.5;entryY=1;entryDx=0;entryDy=0;exitX=0.5;exitY=0;exitDx=0;exitDy=0;" edge="1" parent="1" source="8k8SDluN_3D2_-qeHtZn-17" target="8k8SDluN_3D2_-qeHtZn-14">
          <mxGeometry width="50" height="50" relative="1" as="geometry">
            <mxPoint x="1160" y="206" as="sourcePoint" />
            <mxPoint x="1210" y="156" as="targetPoint" />
          </mxGeometry>
        </mxCell>
        <mxCell id="8k8SDluN_3D2_-qeHtZn-21" value="" style="endArrow=none;html=1;rounded=0;entryX=0.5;entryY=1;entryDx=0;entryDy=0;exitX=0.5;exitY=0;exitDx=0;exitDy=0;" edge="1" parent="1" source="8k8SDluN_3D2_-qeHtZn-16" target="8k8SDluN_3D2_-qeHtZn-14">
          <mxGeometry width="50" height="50" relative="1" as="geometry">
            <mxPoint x="1160" y="266" as="sourcePoint" />
            <mxPoint x="1280" y="226" as="targetPoint" />
          </mxGeometry>
        </mxCell>
        <mxCell id="8k8SDluN_3D2_-qeHtZn-22" value="" style="endArrow=none;html=1;rounded=0;exitX=0.5;exitY=0;exitDx=0;exitDy=0;" edge="1" parent="1" source="8k8SDluN_3D2_-qeHtZn-18">
          <mxGeometry width="50" height="50" relative="1" as="geometry">
            <mxPoint x="1170" y="276" as="sourcePoint" />
            <mxPoint x="1270" y="216" as="targetPoint" />
          </mxGeometry>
        </mxCell>
        <mxCell id="8k8SDluN_3D2_-qeHtZn-23" value="" style="endArrow=none;html=1;rounded=0;entryX=0.5;entryY=1;entryDx=0;entryDy=0;exitX=0.588;exitY=0.04;exitDx=0;exitDy=0;exitPerimeter=0;" edge="1" parent="1" source="8k8SDluN_3D2_-qeHtZn-19" target="8k8SDluN_3D2_-qeHtZn-14">
          <mxGeometry width="50" height="50" relative="1" as="geometry">
            <mxPoint x="1180" y="286" as="sourcePoint" />
            <mxPoint x="1300" y="246" as="targetPoint" />
          </mxGeometry>
        </mxCell>
        <mxCell id="8k8SDluN_3D2_-qeHtZn-25" value="&lt;u&gt;dni&lt;/u&gt;" style="ellipse;whiteSpace=wrap;html=1;" vertex="1" parent="1">
          <mxGeometry x="15" y="270" width="80" height="50" as="geometry" />
        </mxCell>
        <mxCell id="8k8SDluN_3D2_-qeHtZn-26" value="nombre" style="ellipse;whiteSpace=wrap;html=1;" vertex="1" parent="1">
          <mxGeometry x="115" y="270" width="80" height="50" as="geometry" />
        </mxCell>
        <mxCell id="8k8SDluN_3D2_-qeHtZn-27" value="apellido" style="ellipse;whiteSpace=wrap;html=1;" vertex="1" parent="1">
          <mxGeometry x="10" y="50" width="80" height="50" as="geometry" />
        </mxCell>
        <mxCell id="8k8SDluN_3D2_-qeHtZn-28" value="domicilio" style="ellipse;whiteSpace=wrap;html=1;" vertex="1" parent="1">
          <mxGeometry x="110" y="50" width="80" height="50" as="geometry" />
        </mxCell>
        <mxCell id="8k8SDluN_3D2_-qeHtZn-29" value="" style="endArrow=none;html=1;rounded=0;entryX=0.5;entryY=1;entryDx=0;entryDy=0;exitX=0.5;exitY=0;exitDx=0;exitDy=0;" edge="1" parent="1" source="8k8SDluN_3D2_-qeHtZn-25" target="8k8SDluN_3D2_-qeHtZn-15">
          <mxGeometry width="50" height="50" relative="1" as="geometry">
            <mxPoint x="110" y="440" as="sourcePoint" />
            <mxPoint x="160" y="390" as="targetPoint" />
          </mxGeometry>
        </mxCell>
        <mxCell id="8k8SDluN_3D2_-qeHtZn-30" value="nacimiento" style="ellipse;whiteSpace=wrap;html=1;" vertex="1" parent="1">
          <mxGeometry x="210" y="270" width="80" height="50" as="geometry" />
        </mxCell>
        <mxCell id="8k8SDluN_3D2_-qeHtZn-31" value="telefono" style="ellipse;whiteSpace=wrap;html=1;" vertex="1" parent="1">
          <mxGeometry x="210" y="50" width="80" height="50" as="geometry" />
        </mxCell>
        <mxCell id="8k8SDluN_3D2_-qeHtZn-32" value="" style="endArrow=none;html=1;rounded=0;entryX=0.5;entryY=1;entryDx=0;entryDy=0;exitX=0.5;exitY=0;exitDx=0;exitDy=0;" edge="1" parent="1" source="8k8SDluN_3D2_-qeHtZn-26" target="8k8SDluN_3D2_-qeHtZn-15">
          <mxGeometry width="50" height="50" relative="1" as="geometry">
            <mxPoint x="65" y="280" as="sourcePoint" />
            <mxPoint x="130" y="230" as="targetPoint" />
          </mxGeometry>
        </mxCell>
        <mxCell id="8k8SDluN_3D2_-qeHtZn-33" value="" style="endArrow=none;html=1;rounded=0;entryX=0.5;entryY=1;entryDx=0;entryDy=0;exitX=0.5;exitY=0;exitDx=0;exitDy=0;" edge="1" parent="1" source="8k8SDluN_3D2_-qeHtZn-30" target="8k8SDluN_3D2_-qeHtZn-15">
          <mxGeometry width="50" height="50" relative="1" as="geometry">
            <mxPoint x="75" y="290" as="sourcePoint" />
            <mxPoint x="140" y="240" as="targetPoint" />
          </mxGeometry>
        </mxCell>
        <mxCell id="8k8SDluN_3D2_-qeHtZn-34" value="" style="endArrow=none;html=1;rounded=0;entryX=0.5;entryY=1;entryDx=0;entryDy=0;exitX=0.5;exitY=0;exitDx=0;exitDy=0;" edge="1" parent="1" source="8k8SDluN_3D2_-qeHtZn-15" target="8k8SDluN_3D2_-qeHtZn-27">
          <mxGeometry width="50" height="50" relative="1" as="geometry">
            <mxPoint x="60" y="150" as="sourcePoint" />
            <mxPoint x="125" y="100" as="targetPoint" />
          </mxGeometry>
        </mxCell>
        <mxCell id="8k8SDluN_3D2_-qeHtZn-35" value="" style="endArrow=none;html=1;rounded=0;entryX=0.5;entryY=1;entryDx=0;entryDy=0;" edge="1" parent="1" target="8k8SDluN_3D2_-qeHtZn-28">
          <mxGeometry width="50" height="50" relative="1" as="geometry">
            <mxPoint x="120" y="160" as="sourcePoint" />
            <mxPoint x="60" y="110" as="targetPoint" />
          </mxGeometry>
        </mxCell>
        <mxCell id="8k8SDluN_3D2_-qeHtZn-36" value="" style="endArrow=none;html=1;rounded=0;entryX=0.5;entryY=1;entryDx=0;entryDy=0;exitX=0.5;exitY=0;exitDx=0;exitDy=0;" edge="1" parent="1" source="8k8SDluN_3D2_-qeHtZn-15" target="8k8SDluN_3D2_-qeHtZn-31">
          <mxGeometry width="50" height="50" relative="1" as="geometry">
            <mxPoint x="140" y="180" as="sourcePoint" />
            <mxPoint x="70" y="120" as="targetPoint" />
          </mxGeometry>
        </mxCell>
        <mxCell id="8k8SDluN_3D2_-qeHtZn-40" value="marca" style="ellipse;whiteSpace=wrap;html=1;" vertex="1" parent="1">
          <mxGeometry x="590" y="35" width="80" height="50" as="geometry" />
        </mxCell>
        <mxCell id="8k8SDluN_3D2_-qeHtZn-41" value="modelo" style="ellipse;whiteSpace=wrap;html=1;" vertex="1" parent="1">
          <mxGeometry x="690" y="35" width="80" height="50" as="geometry" />
        </mxCell>
        <mxCell id="8k8SDluN_3D2_-qeHtZn-42" value="fecha de&lt;br&gt;fabricacion" style="ellipse;whiteSpace=wrap;html=1;" vertex="1" parent="1">
          <mxGeometry x="790" y="35" width="80" height="50" as="geometry" />
        </mxCell>
        <mxCell id="8k8SDluN_3D2_-qeHtZn-43" value="" style="endArrow=none;html=1;rounded=0;entryX=0.5;entryY=1;entryDx=0;entryDy=0;exitX=0.5;exitY=0;exitDx=0;exitDy=0;" edge="1" parent="1" target="8k8SDluN_3D2_-qeHtZn-40">
          <mxGeometry width="50" height="50" relative="1" as="geometry">
            <mxPoint x="700" y="145" as="sourcePoint" />
            <mxPoint x="705" y="85" as="targetPoint" />
          </mxGeometry>
        </mxCell>
        <mxCell id="8k8SDluN_3D2_-qeHtZn-44" value="" style="endArrow=none;html=1;rounded=0;entryX=0.5;entryY=1;entryDx=0;entryDy=0;" edge="1" parent="1" target="8k8SDluN_3D2_-qeHtZn-41">
          <mxGeometry width="50" height="50" relative="1" as="geometry">
            <mxPoint x="700" y="145" as="sourcePoint" />
            <mxPoint x="640" y="95" as="targetPoint" />
          </mxGeometry>
        </mxCell>
        <mxCell id="8k8SDluN_3D2_-qeHtZn-45" value="" style="endArrow=none;html=1;rounded=0;entryX=0.5;entryY=1;entryDx=0;entryDy=0;exitX=0.5;exitY=0;exitDx=0;exitDy=0;" edge="1" parent="1" target="8k8SDluN_3D2_-qeHtZn-42">
          <mxGeometry width="50" height="50" relative="1" as="geometry">
            <mxPoint x="700" y="145" as="sourcePoint" />
            <mxPoint x="650" y="105" as="targetPoint" />
          </mxGeometry>
        </mxCell>
        <mxCell id="8k8SDluN_3D2_-qeHtZn-46" value="puertas" style="ellipse;whiteSpace=wrap;html=1;" vertex="1" parent="1">
          <mxGeometry x="645" y="245" width="80" height="50" as="geometry" />
        </mxCell>
        <mxCell id="8k8SDluN_3D2_-qeHtZn-47" value="&lt;u&gt;Id&lt;/u&gt;" style="ellipse;whiteSpace=wrap;html=1;" vertex="1" parent="1">
          <mxGeometry x="545" y="245" width="80" height="50" as="geometry" />
        </mxCell>
        <mxCell id="8k8SDluN_3D2_-qeHtZn-48" value="Kilometros" style="ellipse;whiteSpace=wrap;html=1;" vertex="1" parent="1">
          <mxGeometry x="745" y="245" width="80" height="50" as="geometry" />
        </mxCell>
        <mxCell id="8k8SDluN_3D2_-qeHtZn-49" value="precio" style="ellipse;whiteSpace=wrap;html=1;" vertex="1" parent="1">
          <mxGeometry x="835" y="245" width="80" height="50" as="geometry" />
        </mxCell>
        <mxCell id="8k8SDluN_3D2_-qeHtZn-50" value="" style="endArrow=none;html=1;rounded=0;entryX=0.5;entryY=1;entryDx=0;entryDy=0;exitX=0.5;exitY=0;exitDx=0;exitDy=0;" edge="1" parent="1" source="8k8SDluN_3D2_-qeHtZn-47">
          <mxGeometry width="50" height="50" relative="1" as="geometry">
            <mxPoint x="595" y="195" as="sourcePoint" />
            <mxPoint x="705" y="205" as="targetPoint" />
          </mxGeometry>
        </mxCell>
        <mxCell id="8k8SDluN_3D2_-qeHtZn-51" value="" style="endArrow=none;html=1;rounded=0;entryX=0.5;entryY=1;entryDx=0;entryDy=0;exitX=0.5;exitY=0;exitDx=0;exitDy=0;" edge="1" parent="1" source="8k8SDluN_3D2_-qeHtZn-46">
          <mxGeometry width="50" height="50" relative="1" as="geometry">
            <mxPoint x="595" y="255" as="sourcePoint" />
            <mxPoint x="705" y="205" as="targetPoint" />
          </mxGeometry>
        </mxCell>
        <mxCell id="8k8SDluN_3D2_-qeHtZn-52" value="" style="endArrow=none;html=1;rounded=0;exitX=0.5;exitY=0;exitDx=0;exitDy=0;" edge="1" parent="1" source="8k8SDluN_3D2_-qeHtZn-48">
          <mxGeometry width="50" height="50" relative="1" as="geometry">
            <mxPoint x="605" y="265" as="sourcePoint" />
            <mxPoint x="705" y="205" as="targetPoint" />
          </mxGeometry>
        </mxCell>
        <mxCell id="8k8SDluN_3D2_-qeHtZn-53" value="" style="endArrow=none;html=1;rounded=0;entryX=0.5;entryY=1;entryDx=0;entryDy=0;exitX=0.588;exitY=0.04;exitDx=0;exitDy=0;exitPerimeter=0;" edge="1" parent="1" source="8k8SDluN_3D2_-qeHtZn-49">
          <mxGeometry width="50" height="50" relative="1" as="geometry">
            <mxPoint x="615" y="275" as="sourcePoint" />
            <mxPoint x="705" y="205" as="targetPoint" />
          </mxGeometry>
        </mxCell>
        <mxCell id="8k8SDluN_3D2_-qeHtZn-54" value="divisa" style="ellipse;whiteSpace=wrap;html=1;" vertex="1" parent="1">
          <mxGeometry x="490" y="40" width="80" height="50" as="geometry" />
        </mxCell>
        <mxCell id="8k8SDluN_3D2_-qeHtZn-55" value="" style="endArrow=none;html=1;rounded=0;entryX=0.5;entryY=1;entryDx=0;entryDy=0;exitX=0.5;exitY=0;exitDx=0;exitDy=0;" edge="1" parent="1" source="8k8SDluN_3D2_-qeHtZn-13">
          <mxGeometry width="50" height="50" relative="1" as="geometry">
            <mxPoint x="710" y="155" as="sourcePoint" />
            <mxPoint x="530" y="85" as="targetPoint" />
          </mxGeometry>
        </mxCell>
        <mxCell id="8k8SDluN_3D2_-qeHtZn-56" value="cantidad de&amp;nbsp;&lt;br&gt;propietarios" style="ellipse;whiteSpace=wrap;html=1;" vertex="1" parent="1">
          <mxGeometry x="890" y="35" width="80" height="50" as="geometry" />
        </mxCell>
        <mxCell id="8k8SDluN_3D2_-qeHtZn-57" value="" style="endArrow=none;html=1;rounded=0;entryX=0.5;entryY=1;entryDx=0;entryDy=0;exitX=0.5;exitY=0;exitDx=0;exitDy=0;" edge="1" parent="1" source="8k8SDluN_3D2_-qeHtZn-13" target="8k8SDluN_3D2_-qeHtZn-56">
          <mxGeometry width="50" height="50" relative="1" as="geometry">
            <mxPoint x="710" y="155" as="sourcePoint" />
            <mxPoint x="840" y="95" as="targetPoint" />
          </mxGeometry>
        </mxCell>
        <mxCell id="8k8SDluN_3D2_-qeHtZn-58" value="Tiene" style="rhombus;whiteSpace=wrap;html=1;fillColor=#dae8fc;strokeColor=#6c8ebf;" vertex="1" parent="1">
          <mxGeometry x="370" y="151" width="70" height="80" as="geometry" />
        </mxCell>
        <mxCell id="8k8SDluN_3D2_-qeHtZn-59" value="" style="endArrow=none;html=1;rounded=0;exitX=1;exitY=0.5;exitDx=0;exitDy=0;entryX=0;entryY=0.5;entryDx=0;entryDy=0;fillColor=#dae8fc;strokeColor=#6c8ebf;" edge="1" parent="1" source="8k8SDluN_3D2_-qeHtZn-15" target="8k8SDluN_3D2_-qeHtZn-58">
          <mxGeometry width="50" height="50" relative="1" as="geometry">
            <mxPoint x="210" y="205" as="sourcePoint" />
            <mxPoint x="260" y="155" as="targetPoint" />
          </mxGeometry>
        </mxCell>
        <mxCell id="8k8SDluN_3D2_-qeHtZn-60" value="" style="endArrow=none;html=1;rounded=0;entryX=0;entryY=0.75;entryDx=0;entryDy=0;fillColor=#dae8fc;strokeColor=#6c8ebf;" edge="1" parent="1" target="8k8SDluN_3D2_-qeHtZn-13">
          <mxGeometry width="50" height="50" relative="1" as="geometry">
            <mxPoint x="440" y="190" as="sourcePoint" />
            <mxPoint x="490" y="140" as="targetPoint" />
          </mxGeometry>
        </mxCell>
        <mxCell id="8k8SDluN_3D2_-qeHtZn-61" value="1" style="text;html=1;strokeColor=none;fillColor=none;align=center;verticalAlign=middle;whiteSpace=wrap;rounded=0;fontSize=16;" vertex="1" parent="1">
          <mxGeometry x="180" y="151" width="60" height="30" as="geometry" />
        </mxCell>
        <mxCell id="8k8SDluN_3D2_-qeHtZn-62" value="N" style="text;html=1;strokeColor=none;fillColor=none;align=center;verticalAlign=middle;whiteSpace=wrap;rounded=0;" vertex="1" parent="1">
          <mxGeometry x="580" y="155" width="60" height="30" as="geometry" />
        </mxCell>
        <mxCell id="8k8SDluN_3D2_-qeHtZn-67" value="" style="endArrow=none;html=1;rounded=0;exitX=1;exitY=0.5;exitDx=0;exitDy=0;entryX=0;entryY=0.5;entryDx=0;entryDy=0;fillColor=#dae8fc;strokeColor=#6c8ebf;" edge="1" parent="1">
          <mxGeometry width="50" height="50" relative="1" as="geometry">
            <mxPoint x="760" y="184" as="sourcePoint" />
            <mxPoint x="950" y="185" as="targetPoint" />
          </mxGeometry>
        </mxCell>
        <mxCell id="8k8SDluN_3D2_-qeHtZn-68" value="1" style="text;html=1;strokeColor=none;fillColor=none;align=center;verticalAlign=middle;whiteSpace=wrap;rounded=0;fontSize=16;" vertex="1" parent="1">
          <mxGeometry x="760" y="145" width="60" height="30" as="geometry" />
        </mxCell>
        <mxCell id="8k8SDluN_3D2_-qeHtZn-69" value="Tiene" style="rhombus;whiteSpace=wrap;html=1;fillColor=#dae8fc;strokeColor=#6c8ebf;" vertex="1" parent="1">
          <mxGeometry x="950" y="145" width="70" height="80" as="geometry" />
        </mxCell>
        <mxCell id="8k8SDluN_3D2_-qeHtZn-70" value="N" style="text;html=1;strokeColor=none;fillColor=none;align=center;verticalAlign=middle;whiteSpace=wrap;rounded=0;" vertex="1" parent="1">
          <mxGeometry x="1150" y="156" width="60" height="30" as="geometry" />
        </mxCell>
        <mxCell id="8k8SDluN_3D2_-qeHtZn-71" value="" style="endArrow=none;html=1;rounded=0;exitX=1;exitY=0.5;exitDx=0;exitDy=0;entryX=0;entryY=0.5;entryDx=0;entryDy=0;fillColor=#dae8fc;strokeColor=#6c8ebf;" edge="1" parent="1" source="8k8SDluN_3D2_-qeHtZn-69" target="8k8SDluN_3D2_-qeHtZn-14">
          <mxGeometry width="50" height="50" relative="1" as="geometry">
            <mxPoint x="990" y="231" as="sourcePoint" />
            <mxPoint x="1180" y="232" as="targetPoint" />
          </mxGeometry>
        </mxCell>
        <mxCell id="8k8SDluN_3D2_-qeHtZn-72" value="Cliente" style="swimlane;fontStyle=0;childLayout=stackLayout;horizontal=1;startSize=30;horizontalStack=0;resizeParent=1;resizeParentMax=0;resizeLast=0;collapsible=1;marginBottom=0;whiteSpace=wrap;html=1;" vertex="1" parent="1">
          <mxGeometry x="85" y="430" width="140" height="240" as="geometry" />
        </mxCell>
        <mxCell id="8k8SDluN_3D2_-qeHtZn-73" value="(PK) Id_cliente Int" style="text;strokeColor=none;fillColor=none;align=left;verticalAlign=middle;spacingLeft=4;spacingRight=4;overflow=hidden;points=[[0,0.5],[1,0.5]];portConstraint=eastwest;rotatable=0;whiteSpace=wrap;html=1;" vertex="1" parent="8k8SDluN_3D2_-qeHtZn-72">
          <mxGeometry y="30" width="140" height="30" as="geometry" />
        </mxCell>
        <mxCell id="8k8SDluN_3D2_-qeHtZn-74" value="dni VARCHAR" style="text;strokeColor=none;fillColor=none;align=left;verticalAlign=middle;spacingLeft=4;spacingRight=4;overflow=hidden;points=[[0,0.5],[1,0.5]];portConstraint=eastwest;rotatable=0;whiteSpace=wrap;html=1;" vertex="1" parent="8k8SDluN_3D2_-qeHtZn-72">
          <mxGeometry y="60" width="140" height="30" as="geometry" />
        </mxCell>
        <mxCell id="8k8SDluN_3D2_-qeHtZn-77" value="Nombre VARCHAR" style="text;strokeColor=none;fillColor=none;align=left;verticalAlign=middle;spacingLeft=4;spacingRight=4;overflow=hidden;points=[[0,0.5],[1,0.5]];portConstraint=eastwest;rotatable=0;whiteSpace=wrap;html=1;" vertex="1" parent="8k8SDluN_3D2_-qeHtZn-72">
          <mxGeometry y="90" width="140" height="30" as="geometry" />
        </mxCell>
        <mxCell id="8k8SDluN_3D2_-qeHtZn-78" value="Apellido VARCHAR" style="text;strokeColor=none;fillColor=none;align=left;verticalAlign=middle;spacingLeft=4;spacingRight=4;overflow=hidden;points=[[0,0.5],[1,0.5]];portConstraint=eastwest;rotatable=0;whiteSpace=wrap;html=1;" vertex="1" parent="8k8SDluN_3D2_-qeHtZn-72">
          <mxGeometry y="120" width="140" height="30" as="geometry" />
        </mxCell>
        <mxCell id="8k8SDluN_3D2_-qeHtZn-79" value="Nacimiento DATE" style="text;strokeColor=none;fillColor=none;align=left;verticalAlign=middle;spacingLeft=4;spacingRight=4;overflow=hidden;points=[[0,0.5],[1,0.5]];portConstraint=eastwest;rotatable=0;whiteSpace=wrap;html=1;" vertex="1" parent="8k8SDluN_3D2_-qeHtZn-72">
          <mxGeometry y="150" width="140" height="30" as="geometry" />
        </mxCell>
        <mxCell id="8k8SDluN_3D2_-qeHtZn-80" value="Domicilio VARCHAR" style="text;strokeColor=none;fillColor=none;align=left;verticalAlign=middle;spacingLeft=4;spacingRight=4;overflow=hidden;points=[[0,0.5],[1,0.5]];portConstraint=eastwest;rotatable=0;whiteSpace=wrap;html=1;" vertex="1" parent="8k8SDluN_3D2_-qeHtZn-72">
          <mxGeometry y="180" width="140" height="30" as="geometry" />
        </mxCell>
        <mxCell id="8k8SDluN_3D2_-qeHtZn-81" value="Telefono VARCHAR" style="text;strokeColor=none;fillColor=none;align=left;verticalAlign=middle;spacingLeft=4;spacingRight=4;overflow=hidden;points=[[0,0.5],[1,0.5]];portConstraint=eastwest;rotatable=0;whiteSpace=wrap;html=1;" vertex="1" parent="8k8SDluN_3D2_-qeHtZn-72">
          <mxGeometry y="210" width="140" height="30" as="geometry" />
        </mxCell>
        <mxCell id="8k8SDluN_3D2_-qeHtZn-82" value="Auto" style="swimlane;fontStyle=0;childLayout=stackLayout;horizontal=1;startSize=30;horizontalStack=0;resizeParent=1;resizeParentMax=0;resizeLast=0;collapsible=1;marginBottom=0;whiteSpace=wrap;html=1;" vertex="1" parent="1">
          <mxGeometry x="360" y="420" width="140" height="350" as="geometry" />
        </mxCell>
        <mxCell id="8k8SDluN_3D2_-qeHtZn-83" value="(PK) Id_auto INT" style="text;strokeColor=none;fillColor=none;align=left;verticalAlign=middle;spacingLeft=4;spacingRight=4;overflow=hidden;points=[[0,0.5],[1,0.5]];portConstraint=eastwest;rotatable=0;whiteSpace=wrap;html=1;" vertex="1" parent="8k8SDluN_3D2_-qeHtZn-82">
          <mxGeometry y="30" width="140" height="30" as="geometry" />
        </mxCell>
        <mxCell id="8k8SDluN_3D2_-qeHtZn-84" value="(FK) Id_cliente INT" style="text;strokeColor=none;fillColor=none;align=left;verticalAlign=middle;spacingLeft=4;spacingRight=4;overflow=hidden;points=[[0,0.5],[1,0.5]];portConstraint=eastwest;rotatable=0;whiteSpace=wrap;html=1;" vertex="1" parent="8k8SDluN_3D2_-qeHtZn-82">
          <mxGeometry y="60" width="140" height="30" as="geometry" />
        </mxCell>
        <mxCell id="8k8SDluN_3D2_-qeHtZn-85" value="Puertas INT" style="text;strokeColor=none;fillColor=none;align=left;verticalAlign=middle;spacingLeft=4;spacingRight=4;overflow=hidden;points=[[0,0.5],[1,0.5]];portConstraint=eastwest;rotatable=0;whiteSpace=wrap;html=1;" vertex="1" parent="8k8SDluN_3D2_-qeHtZn-82">
          <mxGeometry y="90" width="140" height="30" as="geometry" />
        </mxCell>
        <mxCell id="8k8SDluN_3D2_-qeHtZn-86" value="Kilometros DOUBLE" style="text;strokeColor=none;fillColor=none;align=left;verticalAlign=middle;spacingLeft=4;spacingRight=4;overflow=hidden;points=[[0,0.5],[1,0.5]];portConstraint=eastwest;rotatable=0;whiteSpace=wrap;html=1;" vertex="1" parent="8k8SDluN_3D2_-qeHtZn-82">
          <mxGeometry y="120" width="140" height="30" as="geometry" />
        </mxCell>
        <mxCell id="8k8SDluN_3D2_-qeHtZn-87" value="Precio DOUBLE" style="text;strokeColor=none;fillColor=none;align=left;verticalAlign=middle;spacingLeft=4;spacingRight=4;overflow=hidden;points=[[0,0.5],[1,0.5]];portConstraint=eastwest;rotatable=0;whiteSpace=wrap;html=1;" vertex="1" parent="8k8SDluN_3D2_-qeHtZn-82">
          <mxGeometry y="150" width="140" height="30" as="geometry" />
        </mxCell>
        <mxCell id="8k8SDluN_3D2_-qeHtZn-88" value="Divisa VARCHAR" style="text;strokeColor=none;fillColor=none;align=left;verticalAlign=middle;spacingLeft=4;spacingRight=4;overflow=hidden;points=[[0,0.5],[1,0.5]];portConstraint=eastwest;rotatable=0;whiteSpace=wrap;html=1;" vertex="1" parent="8k8SDluN_3D2_-qeHtZn-82">
          <mxGeometry y="180" width="140" height="30" as="geometry" />
        </mxCell>
        <mxCell id="8k8SDluN_3D2_-qeHtZn-90" value="Modelo VARCHAR" style="text;strokeColor=none;fillColor=none;align=left;verticalAlign=middle;spacingLeft=4;spacingRight=4;overflow=hidden;points=[[0,0.5],[1,0.5]];portConstraint=eastwest;rotatable=0;whiteSpace=wrap;html=1;" vertex="1" parent="8k8SDluN_3D2_-qeHtZn-82">
          <mxGeometry y="210" width="140" height="30" as="geometry" />
        </mxCell>
        <mxCell id="8k8SDluN_3D2_-qeHtZn-91" value="Fecha de&lt;br&gt;Fabricacion&amp;nbsp; DATE" style="text;strokeColor=none;fillColor=none;align=left;verticalAlign=middle;spacingLeft=4;spacingRight=4;overflow=hidden;points=[[0,0.5],[1,0.5]];portConstraint=eastwest;rotatable=0;whiteSpace=wrap;html=1;" vertex="1" parent="8k8SDluN_3D2_-qeHtZn-82">
          <mxGeometry y="240" width="140" height="30" as="geometry" />
        </mxCell>
        <mxCell id="8k8SDluN_3D2_-qeHtZn-92" value="Cantidad de&amp;nbsp;&lt;br&gt;Propiertarios.&amp;nbsp; &amp;nbsp; &amp;nbsp;INT" style="text;strokeColor=none;fillColor=none;align=left;verticalAlign=middle;spacingLeft=4;spacingRight=4;overflow=hidden;points=[[0,0.5],[1,0.5]];portConstraint=eastwest;rotatable=0;whiteSpace=wrap;html=1;" vertex="1" parent="8k8SDluN_3D2_-qeHtZn-82">
          <mxGeometry y="270" width="140" height="30" as="geometry" />
        </mxCell>
        <mxCell id="8k8SDluN_3D2_-qeHtZn-89" value="Marca VARCHAR" style="text;strokeColor=none;fillColor=none;align=left;verticalAlign=middle;spacingLeft=4;spacingRight=4;overflow=hidden;points=[[0,0.5],[1,0.5]];portConstraint=eastwest;rotatable=0;whiteSpace=wrap;html=1;" vertex="1" parent="8k8SDluN_3D2_-qeHtZn-82">
          <mxGeometry y="300" width="140" height="50" as="geometry" />
        </mxCell>
        <mxCell id="8k8SDluN_3D2_-qeHtZn-93" value="Service" style="swimlane;fontStyle=0;childLayout=stackLayout;horizontal=1;startSize=30;horizontalStack=0;resizeParent=1;resizeParentMax=0;resizeLast=0;collapsible=1;marginBottom=0;whiteSpace=wrap;html=1;" vertex="1" parent="1">
          <mxGeometry x="630" y="450" width="140" height="180" as="geometry" />
        </mxCell>
        <mxCell id="8k8SDluN_3D2_-qeHtZn-94" value="(PK) Id_service Int" style="text;strokeColor=none;fillColor=none;align=left;verticalAlign=middle;spacingLeft=4;spacingRight=4;overflow=hidden;points=[[0,0.5],[1,0.5]];portConstraint=eastwest;rotatable=0;whiteSpace=wrap;html=1;" vertex="1" parent="8k8SDluN_3D2_-qeHtZn-93">
          <mxGeometry y="30" width="140" height="30" as="geometry" />
        </mxCell>
        <mxCell id="8k8SDluN_3D2_-qeHtZn-95" value="(FK) Id_auto int" style="text;strokeColor=none;fillColor=none;align=left;verticalAlign=middle;spacingLeft=4;spacingRight=4;overflow=hidden;points=[[0,0.5],[1,0.5]];portConstraint=eastwest;rotatable=0;whiteSpace=wrap;html=1;" vertex="1" parent="8k8SDluN_3D2_-qeHtZn-93">
          <mxGeometry y="60" width="140" height="30" as="geometry" />
        </mxCell>
        <mxCell id="8k8SDluN_3D2_-qeHtZn-96" value="Descripcion VARCHAR" style="text;strokeColor=none;fillColor=none;align=left;verticalAlign=middle;spacingLeft=4;spacingRight=4;overflow=hidden;points=[[0,0.5],[1,0.5]];portConstraint=eastwest;rotatable=0;whiteSpace=wrap;html=1;" vertex="1" parent="8k8SDluN_3D2_-qeHtZn-93">
          <mxGeometry y="90" width="140" height="30" as="geometry" />
        </mxCell>
        <mxCell id="8k8SDluN_3D2_-qeHtZn-97" value="Kilometros DOUBLE" style="text;strokeColor=none;fillColor=none;align=left;verticalAlign=middle;spacingLeft=4;spacingRight=4;overflow=hidden;points=[[0,0.5],[1,0.5]];portConstraint=eastwest;rotatable=0;whiteSpace=wrap;html=1;" vertex="1" parent="8k8SDluN_3D2_-qeHtZn-93">
          <mxGeometry y="120" width="140" height="30" as="geometry" />
        </mxCell>
        <mxCell id="8k8SDluN_3D2_-qeHtZn-98" value="Fecha DATE" style="text;strokeColor=none;fillColor=none;align=left;verticalAlign=middle;spacingLeft=4;spacingRight=4;overflow=hidden;points=[[0,0.5],[1,0.5]];portConstraint=eastwest;rotatable=0;whiteSpace=wrap;html=1;" vertex="1" parent="8k8SDluN_3D2_-qeHtZn-93">
          <mxGeometry y="150" width="140" height="30" as="geometry" />
        </mxCell>
        <mxCell id="8k8SDluN_3D2_-qeHtZn-104" value="" style="edgeStyle=entityRelationEdgeStyle;fontSize=12;html=1;endArrow=ERoneToMany;rounded=0;entryX=-0.029;entryY=0.3;entryDx=0;entryDy=0;entryPerimeter=0;" edge="1" parent="1" target="8k8SDluN_3D2_-qeHtZn-86">
          <mxGeometry width="100" height="100" relative="1" as="geometry">
            <mxPoint x="225" y="550" as="sourcePoint" />
            <mxPoint x="325" y="450" as="targetPoint" />
          </mxGeometry>
        </mxCell>
        <mxCell id="8k8SDluN_3D2_-qeHtZn-105" value="" style="edgeStyle=entityRelationEdgeStyle;fontSize=12;html=1;endArrow=ERoneToMany;rounded=0;entryX=-0.029;entryY=0.3;entryDx=0;entryDy=0;entryPerimeter=0;" edge="1" parent="1">
          <mxGeometry width="100" height="100" relative="1" as="geometry">
            <mxPoint x="500" y="531" as="sourcePoint" />
            <mxPoint x="631" y="530" as="targetPoint" />
          </mxGeometry>
        </mxCell>
      </root>
    </mxGraphModel>
  </diagram>
</mxfile>
